{
  "asset": {
    "generator": "Khronos glTF Blender I/O v4.2.60",
    "version": "2.0"
  },
  "extensionsUsed": [
    "KHR_materials_specular",
    "KHR_materials_ior"
  ],
  "scene": 0,
  "scenes": [
    {
      "name": "Scene",
      "nodes": [
        0
      ]
    }
  ],
  "nodes": [
    {
      "mesh": 0,
      "name": "sphere_gltf"
    }
  ],
  "materials": [
    {
      "doubleSided": true,
      "extensions": {
        "KHR_materials_specular": {
          "specularTexture": {
            "index": 0
          }
        },
        "KHR_materials_ior": {
          "ior": 1.4500000476837158
        }
      },
      "name": "rocky_terrain_03",
      "normalTexture": {
        "index": 1
      },
      "pbrMetallicRoughness": {
        "baseColorTexture": {
          "index": 2
        },
        "metallicFactor": 0,
        "metallicRoughnessTexture": {
          "index": 3
        }
      }
    }
  ],
  "meshes": [
    {
      "name": "Sphere.001",
      "primitives": [
        {
          "attributes": {
            "POSITION": 0,
            "NORMAL": 1,
            "TEXCOORD_0": 2
          },
          "indices": 3,
          "material": 0
        }
      ]
    }
  ],
  "textures": [
    {
      "sampler": 0,
      "source": 0
    },
    {
      "sampler": 0,
      "source": 1
    },
    {
      "sampler": 0,
      "source": 2
    },
    {
      "sampler": 0,
      "source": 3
    }
  ],
  "images": [
    {
      "mimeType": "image/jpeg",
      "name": "rocky_terrain_03_spec",
      "uri": "textures/rocky_terrain_03_spec_4k.jpg"
    },
    {
      "mimeType": "image/jpeg",
      "name": "rocky_terrain_03_nor_gl",
      "uri": "textures/rocky_terrain_03_nor_gl_4k.jpg"
    },
    {
      "mimeType": "image/jpeg",
      "name": "rocky_terrain_03_diff",
      "uri": "textures/rocky_terrain_03_diff_4k.jpg"
    },
    {
      "mimeType": "image/jpeg",
      "name": "rocky_terrain_03_rough",
      "uri": "textures/rocky_terrain_03_arm_4k.jpg"
    }
  ],
  "accessors": [
    {
      "bufferView": 0,
      "componentType": 5126,
      "count": 53931,
      "max": [
        44.89274597167969,
        44.86992263793945,
        44.739967346191406
      ],
      "min": [
        -44.89275360107422,
        -44.953590393066406,
        -44.74043655395508
      ],
      "type": "VEC3"
    },
    {
      "bufferView": 1,
      "componentType": 5126,
      "count": 53931,
      "type": "VEC3"
    },
    {
      "bufferView": 2,
      "componentType": 5126,
      "count": 53931,
      "type": "VEC2"
    },
    {
      "bufferView": 3,
      "componentType": 5123,
      "count": 322170,
      "type": "SCALAR"
    }
  ],
  "bufferViews": [
    {
      "buffer": 0,
      "byteLength": 647172,
      "byteOffset": 0,
      "target": 34962
    },
    {
      "buffer": 0,
      "byteLength": 647172,
      "byteOffset": 647172,
      "target": 34962
    },
    {
      "buffer": 0,
      "byteLength": 431448,
      "byteOffset": 1294344,
      "target": 34962
    },
    {
      "buffer": 0,
      "byteLength": 644340,
      "byteOffset": 1725792,
      "target": 34963
    }
  ],
  "samplers": [
    {
      "magFilter": 9729,
      "minFilter": 9987
    }
  ],
  "buffers": [
    {
      "byteLength": 2370132,
      "uri": "rocky_terrain_03.bin"
    }
  ]
}